<svg id="Layer_1" enable-background="new 0 0 128 128" height="512" viewBox="0 0 128 128" width="512" xmlns="http://www.w3.org/2000/svg" xmlns:xlink="http://www.w3.org/1999/xlink"><linearGradient id="SVGID_1_" gradientTransform="matrix(1 0 0 -1 0 127.89)" gradientUnits="userSpaceOnUse" x1="89.724" x2="21.922" y1="28.685" y2="96.487"><stop offset="0" stop-color="#fd545b"/><stop offset="1" stop-color="#fecd1a"/></linearGradient><path d="m46.7 38h18.2c1 0 1.8-.8 1.8-1.8s-.8-1.8-1.8-1.8h-18.2c-1 0-1.8.8-1.8 1.8s.8 1.8 1.8 1.8zm0 14.3h34.6c1 0 1.8-.8 1.8-1.8s-.8-1.8-1.8-1.8h-34.6c-1 0-1.8.8-1.8 1.8s.8 1.8 1.8 1.8zm34.6 10.8h-34.6c-1 0-1.8.8-1.8 1.8s.8 1.8 1.8 1.8h34.6c1 0 1.8-.8 1.8-1.8s-.8-1.8-1.8-1.8zm0 14.3h-34.6c-1 0-1.8.8-1.8 1.8s.8 1.8 1.8 1.8h34.6c1 0 1.8-.8 1.8-1.8s-.8-1.8-1.8-1.8zm15.5-39.4c0-.4-.2-.9-.6-1.2-.4-.4-19.2-19-19.2-19-.4-.4-.8-.6-1.3-.6h-36.2c-4.5 0-8.1 3.6-8.1 8.1v12.7c0 1 .8 1.8 1.8 1.8s1.8-.8 1.8-1.8v-12.6c0-2.5 2.1-4.6 4.6-4.6h34.6v11.8c0 4 3.2 7.2 7.2 7.2h11.8v49.1c0 2.5-2.1 4.6-4.6 4.6h-41.6c-.5 0-.9.2-1.2.5l-10.8 10.8v-43c0-1-.8-1.8-1.8-1.8s-1.8.8-1.8 1.8v47.2c0 1 .8 1.8 1.7 1.8.5 0 .9-.2 1.2-.5l13.3-13.3h40.8c4.5 0 8.4-3.6 8.4-8.1 0 0 0-38.1 0-50.9zm-15.5-1.8c-2 0-3.7-1.6-3.7-3.7v-9.3l6.5 6.5 6.5 6.5zm-49.9 14.1v-.8c0-1 .8-1.8 1.8-1.8s1.8.8 1.8 1.8v.8c0 1-.8 1.8-1.8 1.8s-1.8-.8-1.8-1.8z" fill="url(#SVGID_1_)"/></svg>