<svg id="Capa_1" enable-background="new 0 0 512 512" height="512" viewBox="0 0 512 512" width="512" xmlns="http://www.w3.org/2000/svg"><g><path d="m224.001 420.738h64v69.159h-64z" fill="#365e7d"/><path d="m287.999 420.734v30.604h-36.391c-3.866 0-7 3.134-7 7v31.557h-20.604v-69.16h63.995z" fill="#2b4d66"/><path d="m505 430.738h-497.998c-3.866 0-7-3.134-7-7v-352.421c0-3.866 3.134-7 7-7h497.998c3.866 0 7 3.134 7 7v352.421c0 3.866-3.134 7-7 7z" fill="#46778c"/><path d="m51.509 64.317v366.416h-44.509c-3.866 0-7-3.134-7-7v-352.416c0-3.866 3.134-7 7-7z" fill="#3a6684"/><path d="m473 366.738h-73l-22.334-10h-244.813l-20.606 10h-73.245c-3.866 0-7-3.134-7-7v-231.631l32.002-31.791h408.996c3.866 0 7 3.134 7 7v256.422c0 3.866-3.134 7-7 7z" fill="#9bd8f9"/><path d="m51.509 96.315v270.424h-12.511c-3.866 0-7-3.134-7-7v-231.632z" fill="#73c3f9"/><g><g><path d="m272.001 406.465h-32c-4.267 0-7.726-3.459-7.726-7.726s3.459-7.726 7.726-7.726h32c4.267 0 7.726 3.459 7.726 7.726s-3.459 7.726-7.726 7.726z" fill="#2b4d66"/></g></g><path d="m473 96.317h-408.996v31.791h415.996v-24.791c0-3.866-3.134-7-7-7z" fill="#eaf6ff"/><path d="m64.004 96.317h-24.998c-3.866 0-7 3.134-7 7v24.791h31.998z" fill="#f25a74"/><path d="m51.509 96.315v31.791h-19.501v-24.791c0-3.866 3.134-7 7-7z" fill="#e83d5a"/><path d="m400 366.738h-287.754v-359.63c0-3.866 3.134-7 7-7h273.754c3.866 0 7 3.134 7 7z" fill="#eaf6ff"/><path d="m132.853.106v366.633h-20.604v-359.633c0-3.866 3.134-7 7-7h13.604z" fill="#d8ecfe"/><path d="m319.996 128.106c0 23.684-12.867 44.37-31.998 55.434v.01c-9.406 5.439-20.336-1.439-31.998-1.439s-22.592 6.879-31.998 1.439c-19.131-11.074-31.998-31.761-31.998-55.445 0-35.346 28.649-63.995 63.995-63.995s63.997 28.651 63.997 63.996z" fill="#365e7d"/><g><g><g><path d="m320.001 231.833h-128c-4.267 0-7.726-3.459-7.726-7.726s3.459-7.726 7.726-7.726h127.999c4.267 0 7.726 3.459 7.726 7.726s-3.458 7.726-7.725 7.726z" fill="#365e7d"/></g><g><path d="m222.629 295.718h-32.061c-4.267 0-7.726-3.459-7.726-7.726s3.459-7.726 7.726-7.726h32.061c4.267 0 7.726 3.459 7.726 7.726s-3.459 7.726-7.726 7.726z" fill="#365e7d"/></g><g><path d="m320.001 295.833h-64c-4.267 0-7.726-3.459-7.726-7.726 0-4.268 3.459-7.726 7.726-7.726h64c4.267 0 7.726 3.459 7.726 7.726 0 4.268-3.459 7.726-7.726 7.726z" fill="#365e7d"/></g><g><path d="m222.629 263.718h-32.061c-4.267 0-7.726-3.459-7.726-7.726 0-4.268 3.459-7.726 7.726-7.726h32.061c4.267 0 7.726 3.459 7.726 7.726s-3.459 7.726-7.726 7.726z" fill="#365e7d"/></g><g><path d="m320.001 263.833h-64c-4.267 0-7.726-3.459-7.726-7.726 0-4.268 3.459-7.726 7.726-7.726h64c4.267 0 7.726 3.459 7.726 7.726 0 4.268-3.459 7.726-7.726 7.726z" fill="#365e7d"/></g></g></g><path d="m287.999 150.791v32.76c-9.406 5.439-20.336 8.561-31.998 8.561s-22.592-3.121-31.998-8.561v-32.76c0-3.245 2.225-6.13 5.542-7.191l17.73-4.471h17.451l17.729 4.471c3.318 1.062 5.544 3.946 5.544 7.191z" fill="#9bd8f9"/><path d="m352 510.964v.93h-192v-.93c0-17.16 13.91-31.07 31.06-31.07h129.88c17.15 0 31.06 13.91 31.06 31.07z" fill="#46778c"/><path d="m222.91 479.894c-8.84 0-16.84 3.59-22.63 9.37-5.79 5.79-9.38 13.79-9.38 22.63h-30.9v-.93c0-17.16 13.91-31.07 31.06-31.07z" fill="#3a6684"/><path d="m239.851 117.257v10.72c0 8.919 7.231 16.15 16.15 16.15 8.919 0 16.15-7.231 16.15-16.15v-10.72c0-8.919-7.23-16.15-16.15-16.15-8.919.001-16.15 7.231-16.15 16.15z" fill="#ffcebf"/></g></svg>